<svg width="13.000000" height="15.000000" viewBox="0 0 13 15" fill="none" xmlns="http://www.w3.org/2000/svg" xmlns:xlink="http://www.w3.org/1999/xlink">
	<desc>
			Created with Pixso.
	</desc>
	<defs>
		<clipPath id="clip363_47">
			<rect rx="0.000000" width="12.000000" height="14.000000" transform="translate(0.500000 0.500000)" fill="white" fill-opacity="0"/>
		</clipPath>
	</defs>
	<rect rx="0.000000" width="12.000000" height="14.000000" transform="translate(0.500000 0.500000)" fill="#FFFFFF" fill-opacity="0"/>
	<g clip-path="url(#clip363_47)">
		<path d="M10.75 13.45L9.96 4.64C9.94 4.4 9.73 4.22 9.49 4.22L7.86 4.22L7.86 3.48C7.86 2.11 6.75 1 5.37 1C4 1 2.89 2.11 2.89 3.48L2.89 4.22L1.26 4.22C1.01 4.22 0.81 4.4 0.79 4.64L0 13.49C-0.01 13.62 0.03 13.75 0.12 13.84C0.21 13.94 0.33 14 0.46 14L10.29 14L10.29 14C10.55 14 10.75 13.79 10.75 13.53C10.75 13.5 10.75 13.48 10.75 13.45ZM3.82 3.48C3.82 2.63 4.52 1.93 5.37 1.93C6.23 1.93 6.93 2.63 6.93 3.48L6.93 4.22L3.82 4.22L3.82 3.48ZM0.97 13.06L1.68 5.15L2.89 5.15L2.89 4.99C2.89 5.24 3.1 5.45 3.35 5.45C3.61 5.45 3.82 5.24 3.82 4.99L3.82 5.15L6.93 5.15L6.93 4.99C6.93 5.24 7.14 5.45 7.39 5.45C7.65 5.45 7.86 5.24 7.86 4.99L7.86 5.15L9.07 5.15L9.78 13.06L0.97 13.06Z" fill="#252525" fill-opacity="1.000000" fill-rule="nonzero"/>
		<path d="M10.9 13.43L10.11 4.63Q10.1 4.51 10.05 4.41Q10 4.31 9.91 4.23Q9.82 4.15 9.72 4.11Q9.61 4.07 9.49 4.07L8.01 4.07L8.01 3.48Q8.01 3.19 7.95 2.92Q7.9 2.68 7.8 2.46Q7.71 2.24 7.58 2.04Q7.43 1.81 7.24 1.62Q7.04 1.42 6.82 1.27Q6.62 1.15 6.4 1.05Q6.17 0.96 5.94 0.91Q5.66 0.85 5.37 0.85Q5.09 0.85 4.81 0.91Q4.57 0.96 4.35 1.05Q4.13 1.15 3.93 1.27Q3.71 1.42 3.51 1.62Q3.32 1.81 3.17 2.04Q3.04 2.24 2.95 2.46Q2.85 2.68 2.8 2.92Q2.74 3.19 2.74 3.48L2.74 4.07L1.26 4.07Q1.14 4.07 1.03 4.11Q0.93 4.15 0.84 4.23Q0.75 4.31 0.7 4.41Q0.65 4.51 0.64 4.63L-0.15 13.47Q-0.16 13.61 -0.12 13.73Q-0.09 13.84 0.01 13.94Q0.1 14.04 0.21 14.09Q0.33 14.14 0.46 14.14L10.29 14.14Q10.42 14.14 10.52 14.1Q10.63 14.05 10.72 13.96Q10.81 13.87 10.86 13.77Q10.9 13.66 10.9 13.53Q10.9 13.48 10.9 13.43ZM10.75 13.45L9.96 4.64C9.94 4.4 9.73 4.22 9.49 4.22L7.86 4.22L7.86 3.48C7.86 2.11 6.75 1 5.37 1C4 1 2.89 2.11 2.89 3.48L2.89 4.22L1.26 4.22C1.01 4.22 0.81 4.4 0.79 4.64L0 13.49C-0.01 13.62 0.03 13.75 0.12 13.84C0.21 13.94 0.33 14 0.46 14L10.29 14C10.55 14 10.75 13.79 10.75 13.53C10.75 13.5 10.75 13.48 10.75 13.45ZM3.82 3.48C3.82 2.63 4.52 1.93 5.37 1.93C6.23 1.93 6.93 2.63 6.93 3.48L6.93 4.22L3.82 4.22L3.82 3.48ZM3.97 4.07L6.78 4.07L6.78 3.48Q6.78 3.33 6.75 3.18Q6.72 3.05 6.67 2.94Q6.62 2.82 6.55 2.72Q6.47 2.6 6.37 2.49Q6.26 2.38 6.14 2.31Q6.04 2.24 5.92 2.19Q5.8 2.14 5.68 2.11Q5.53 2.08 5.37 2.08Q5.22 2.08 5.07 2.11Q4.95 2.14 4.83 2.19Q4.71 2.24 4.61 2.31Q4.49 2.38 4.38 2.49Q4.28 2.6 4.2 2.72Q4.13 2.82 4.08 2.94Q4.03 3.05 4 3.18Q3.97 3.33 3.97 3.48L3.97 4.07ZM8.01 5.15L7.86 5.15L7.86 4.99C7.86 5.11 7.81 5.22 7.74 5.3C7.65 5.39 7.53 5.45 7.39 5.45C7.26 5.45 7.14 5.39 7.05 5.3C6.97 5.22 6.93 5.11 6.93 4.99L6.93 5.15L3.82 5.15L3.82 4.99C3.82 5.11 3.77 5.22 3.7 5.3C3.61 5.39 3.49 5.45 3.35 5.45C3.22 5.45 3.1 5.39 3.01 5.3C2.93 5.22 2.89 5.11 2.89 4.99L2.89 5.15L1.68 5.15L0.99 12.91L0.97 13.06L9.78 13.06L9.76 12.91L9.07 5.15L8.01 5.15ZM8.93 5.3L9.61 12.91L1.14 12.91L1.82 5.3L2.82 5.3Q2.86 5.36 2.92 5.42Q3.01 5.51 3.12 5.56Q3.23 5.6 3.35 5.6Q3.48 5.6 3.59 5.56Q3.7 5.51 3.79 5.42Q3.85 5.36 3.89 5.3L6.86 5.3Q6.9 5.36 6.96 5.42Q7.05 5.51 7.16 5.56Q7.27 5.6 7.39 5.6Q7.52 5.6 7.63 5.56Q7.74 5.51 7.83 5.42Q7.89 5.36 7.93 5.3L8.93 5.3Z" fill="#252525" fill-opacity="1.000000" fill-rule="evenodd"/>
	</g>
</svg>
