<svg width="14.000000" height="13.000000" viewBox="0 0 14 13" fill="none" xmlns="http://www.w3.org/2000/svg" xmlns:xlink="http://www.w3.org/1999/xlink">
	<desc>
			Created with Pixso.
	</desc>
	<defs/>
	<path d="M6.1 0.78C5.45 0.26 4.71 0 3.91 0C2.82 0 1.83 0.45 1.11 1.27C0.39 2.08 0 3.19 0 4.39C0 5.62 0.44 6.75 1.38 7.95C2.23 9.01 3.45 10.1 4.86 11.35C5.34 11.78 5.89 12.27 6.45 12.78C6.6 12.92 6.8 13 7 13C7.19 13 7.39 12.92 7.54 12.78C8.1 12.27 8.65 11.78 9.13 11.35C10.54 10.1 11.76 9.01 12.61 7.95C13.55 6.75 14 5.62 14 4.39C14 3.19 13.6 2.08 12.88 1.27C12.16 0.45 11.17 0 10.08 0C9.28 0 8.54 0.26 7.89 0.78C7.89 0.78 7.89 0.79 7.88 0.79C7.56 1.05 7.26 1.38 7 1.76C6.73 1.38 6.43 1.05 6.11 0.79C6.1 0.79 6.1 0.78 6.1 0.78ZM9.54 1.37Q9.8 1.29 10.08 1.29Q10.44 1.29 10.77 1.39Q10.93 1.44 11.08 1.51Q11.18 1.55 11.28 1.61Q11.63 1.81 11.91 2.13Q12.28 2.55 12.48 3.12Q12.7 3.71 12.7 4.39Q12.7 4.68 12.65 4.97Q12.59 5.35 12.44 5.71Q12.18 6.4 11.59 7.14Q11.08 7.78 10.18 8.64Q9.61 9.18 8.27 10.38L8.27 10.38L8.26 10.39L8.26 10.39L8.26 10.39L8.26 10.39Q7.5 11.06 7 11.52Q6.48 11.06 5.72 10.38L5.72 10.38Q4.38 9.18 3.81 8.64Q2.91 7.78 2.4 7.14Q1.81 6.4 1.55 5.71Q1.4 5.35 1.34 4.97Q1.3 4.68 1.3 4.39Q1.3 3.71 1.51 3.12Q1.71 2.55 2.08 2.13Q2.36 1.81 2.71 1.61Q2.81 1.55 2.91 1.51Q3.06 1.44 3.22 1.39Q3.55 1.29 3.91 1.29Q4.19 1.29 4.45 1.37Q4.9 1.48 5.29 1.8Q5.64 2.08 5.93 2.5L7 4.04L8.06 2.5Q8.35 2.08 8.7 1.8Q9.09 1.48 9.54 1.37Z" fill="#252525" fill-opacity="1.000000" fill-rule="evenodd"/>
</svg>
