<svg width="14.300659" height="13.354492" viewBox="0 0 14.3007 13.3545" fill="none" xmlns="http://www.w3.org/2000/svg" xmlns:xlink="http://www.w3.org/1999/xlink">
	<desc>
			Created with Pixso.
	</desc>
	<defs/>
	<mask id="mask_363_78" fill="white">
		<path d="M5.95178 0.149902C2.74756 0.149902 0.150024 2.74756 0.150024 5.95166C0.150024 9.15576 2.74756 11.7534 5.95178 11.7534C7.41223 11.7534 8.7467 11.2139 9.7666 10.3228L13.3713 13.103C13.5828 13.2661 13.8864 13.2271 14.0494 13.0156C14.2125 12.8042 14.1733 12.5005 13.9619 12.3374L10.4436 9.62402C11.2623 8.62354 11.7535 7.34521 11.7535 5.95166C11.7535 2.74756 9.15601 0.149902 5.95178 0.149902ZM5.95178 1.1499C3.2998 1.1499 1.15002 3.2998 1.15002 5.95166C1.15002 8.60352 3.2998 10.7534 5.95178 10.7534C8.60376 10.7534 10.7535 8.60352 10.7535 5.95166C10.7535 3.2998 8.60376 1.1499 5.95178 1.1499Z" clip-rule="evenodd" fill="" fill-opacity="1.000000" fill-rule="evenodd"/>
	</mask>
	<path d="M5.95178 0.149902C2.74756 0.149902 0.150024 2.74756 0.150024 5.95166C0.150024 9.15576 2.74756 11.7534 5.95178 11.7534C7.41223 11.7534 8.7467 11.2139 9.7666 10.3228L13.3713 13.103C13.5828 13.2661 13.8864 13.2271 14.0494 13.0156C14.2125 12.8042 14.1733 12.5005 13.9619 12.3374L10.4436 9.62402C11.2623 8.62354 11.7535 7.34521 11.7535 5.95166C11.7535 2.74756 9.15601 0.149902 5.95178 0.149902ZM5.95178 1.1499C3.2998 1.1499 1.15002 3.2998 1.15002 5.95166C1.15002 8.60352 3.2998 10.7534 5.95178 10.7534C8.60376 10.7534 10.7535 8.60352 10.7535 5.95166C10.7535 3.2998 8.60376 1.1499 5.95178 1.1499Z" clip-rule="evenodd" fill="#252525" fill-opacity="1.000000" fill-rule="evenodd" mask="url(#mask_363_78)"/>
	<path d="M7.25768 0.142781Q6.62073 0 5.95178 0Q5.28283 0 4.64588 0.142781Q4.12995 0.258436 3.63501 0.467773Q3.13327 0.679937 2.68549 0.974201Q2.18001 1.30637 1.74329 1.74316Q1.30519 2.18126 0.9723 2.68842Q0.679277 3.13484 0.467773 3.63477Q0.258734 4.129 0.143111 4.64419Q0 5.28187 0 5.95166Q0 6.62145 0.143111 7.25913Q0.258734 7.77432 0.467773 8.26855Q0.679277 8.76848 0.9723 9.2149Q1.30519 9.72206 1.74329 10.1602Q2.18001 10.5969 2.68549 10.9291Q3.13327 11.2234 3.63501 11.4355Q4.12995 11.6449 4.64588 11.7605Q5.28283 11.9033 5.95178 11.9033Q6.57614 11.9033 7.17434 11.7782Q7.63389 11.6821 8.078 11.5122Q8.53449 11.3377 8.95087 11.0946Q9.38276 10.8424 9.7715 10.5163L13.2798 13.2217Q13.3839 13.3022 13.5013 13.3339Q13.618 13.3654 13.7478 13.3486Q13.8778 13.3318 13.9828 13.2715Q14.088 13.2111 14.1682 13.1069Q14.2481 13.0034 14.2799 12.8868Q14.3118 12.7696 14.2949 12.6392Q14.2781 12.5089 14.2176 12.4037Q14.1572 12.2987 14.0535 12.2188L10.6557 9.59836Q10.9417 9.23045 11.1644 8.82755Q11.3871 8.42445 11.5465 7.98633Q11.6974 7.57173 11.7845 7.14413Q11.9036 6.56002 11.9036 5.95166Q11.9036 5.28187 11.7605 4.64419Q11.6448 4.129 11.4358 3.63477Q11.2243 3.13484 10.9313 2.68842Q10.5984 2.18126 10.1603 1.74316Q9.72355 1.30637 9.21808 0.974201Q8.77029 0.679937 8.26855 0.467773Q7.77362 0.258436 7.25768 0.142781ZM10.5623 9.71556L10.4436 9.62402C10.4752 9.58537 10.5064 9.54629 10.537 9.50682C11.2996 8.52458 11.7535 7.29137 11.7535 5.95166C11.7535 2.74756 9.15601 0.149902 5.95178 0.149902C2.74756 0.149902 0.150024 2.74756 0.150024 5.95166C0.150024 9.15576 2.74756 11.7534 5.95178 11.7534C7.41223 11.7534 8.7467 11.2139 9.7666 10.3228L13.3713 13.103C13.5828 13.2661 13.8864 13.2271 14.0494 13.0156C14.2125 12.8042 14.1733 12.5005 13.9619 12.3374L10.5623 9.71556ZM1.15002 5.95166C1.15002 3.2998 3.2998 1.1499 5.95178 1.1499C8.60376 1.1499 10.7535 3.2998 10.7535 5.95166C10.7535 8.60352 8.60376 10.7534 5.95178 10.7534C3.2998 10.7534 1.15002 8.60352 1.15002 5.95166ZM4.92663 1.41243Q5.42652 1.2998 5.95178 1.2998Q6.47705 1.2998 6.97694 1.41243Q7.37785 1.50276 7.76245 1.66553Q8.15208 1.83031 8.50014 2.05851Q8.89774 2.31918 9.24109 2.6626Q9.58097 3.00235 9.83984 3.39545Q10.0713 3.74695 10.238 4.14111Q10.4013 4.52721 10.4916 4.92967Q10.6035 5.42811 10.6035 5.95166Q10.6035 6.47521 10.4916 6.97365Q10.4013 7.37611 10.238 7.76221Q10.0713 8.15637 9.83984 8.50787Q9.58097 8.90097 9.24109 9.24072Q8.89774 9.58414 8.50014 9.84481Q8.15208 10.073 7.76245 10.2378Q7.37785 10.4006 6.97694 10.4909Q6.47705 10.6035 5.95178 10.6035Q5.42652 10.6035 4.92663 10.4909Q4.52571 10.4006 4.14111 10.2378Q3.75148 10.073 3.40342 9.84481Q3.00583 9.58414 2.66248 9.24072Q2.32191 8.90035 2.06271 8.50643Q1.83184 8.15556 1.66553 7.76221Q1.50226 7.37611 1.41192 6.97365Q1.30005 6.47521 1.30005 5.95166Q1.30005 5.42811 1.41192 4.92967Q1.50226 4.52721 1.66553 4.14111Q1.83184 3.74776 2.06271 3.39689Q2.32191 3.00297 2.66248 2.6626Q3.00583 2.31918 3.40342 2.05851Q3.75148 1.83031 4.14111 1.66553Q4.52571 1.50276 4.92663 1.41243Z" clip-rule="evenodd" fill="#252525" fill-opacity="1.000000" fill-rule="evenodd"/>
</svg>
