<svg width="15.000000" height="15.000000" viewBox="0 0 15 15" fill="none" xmlns="http://www.w3.org/2000/svg" xmlns:xlink="http://www.w3.org/1999/xlink">
	<desc>
			Created with Pixso.
	</desc>
	<defs>
		<clipPath id="clip363_43">
			<rect rx="0.000000" width="14.000000" height="14.000000" transform="translate(0.500000 0.500000)" fill="white" fill-opacity="0"/>
		</clipPath>
	</defs>
	<rect rx="0.000000" width="14.000000" height="14.000000" transform="translate(0.500000 0.500000)" fill="#FFFFFF" fill-opacity="0"/>
	<g clip-path="url(#clip363_43)">
		<path d="M12.09 9.4C11.38 8.69 10.54 8.17 9.62 7.85C10.61 7.17 11.25 6.04 11.25 4.75C11.25 2.68 9.57 1 7.5 1C5.42 1 3.74 2.68 3.74 4.75C3.74 6.04 4.38 7.17 5.37 7.85C4.45 8.17 3.61 8.69 2.9 9.4C1.67 10.63 1 12.26 1 14L2.01 14C2.01 10.97 4.47 8.51 7.5 8.51C10.52 8.51 12.98 10.97 12.98 14L14 14C14 12.26 13.32 10.63 12.09 9.4ZM7.5 7.5C5.98 7.5 4.75 6.27 4.75 4.75C4.75 3.24 5.98 2.01 7.5 2.01C9.01 2.01 10.24 3.24 10.24 4.75C10.24 6.27 9.01 7.5 7.5 7.5Z" fill="#252525" fill-opacity="1.000000" fill-rule="nonzero"/>
		<path d="M9.79 7.91C10.65 8.23 11.43 8.74 12.09 9.4C13.28 10.59 13.96 12.16 13.99 13.85C13.99 13.89 14 13.94 14 14L12.98 14C12.98 10.97 10.52 8.51 7.5 8.51C4.47 8.51 2.01 10.97 2.01 14L1 14C1 13.94 1 13.89 1 13.85C1.03 12.16 1.71 10.59 2.9 9.4C3.56 8.74 4.34 8.23 5.2 7.91C5.25 7.89 5.31 7.87 5.37 7.85C5.32 7.81 5.27 7.78 5.22 7.74C4.32 7.06 3.74 5.97 3.74 4.75C3.74 2.68 5.42 1 7.5 1C9.57 1 11.25 2.68 11.25 4.75C11.25 5.97 10.67 7.06 9.77 7.74C9.72 7.78 9.67 7.81 9.62 7.85C9.68 7.87 9.74 7.89 9.79 7.91ZM9.93 7.8Q10.43 8 10.87 8.26Q11.59 8.69 12.2 9.29Q12.75 9.85 13.15 10.5Q13.43 10.95 13.64 11.45Q13.85 11.95 13.97 12.47Q14.15 13.21 14.15 14L14.15 14.14L12.83 14.14L12.83 14Q12.83 13.41 12.71 12.85Q12.6 12.37 12.41 11.92Q12.22 11.48 11.96 11.08Q11.66 10.62 11.27 10.22Q10.87 9.83 10.41 9.53Q10.01 9.27 9.57 9.08Q9.12 8.89 8.64 8.78Q8.08 8.66 7.5 8.66Q6.91 8.66 6.35 8.78Q5.87 8.89 5.42 9.08Q4.98 9.27 4.58 9.53Q4.12 9.83 3.72 10.22Q3.33 10.62 3.03 11.08Q2.77 11.48 2.58 11.92Q2.39 12.37 2.28 12.85Q2.16 13.41 2.16 14L2.16 14.14L0.84 14.14L0.84 14Q0.84 13.21 1.02 12.47Q1.14 11.95 1.35 11.45Q1.56 10.95 1.84 10.5Q2.24 9.85 2.79 9.29Q3.4 8.69 4.12 8.26Q4.56 8 5.06 7.8Q4.79 7.59 4.57 7.35Q4.27 7.01 4.05 6.6Q3.83 6.18 3.71 5.74Q3.59 5.26 3.59 4.75Q3.59 4.32 3.68 3.91Q3.75 3.57 3.89 3.23Q4.03 2.91 4.22 2.62Q4.44 2.28 4.73 1.99Q5.02 1.7 5.36 1.48Q5.65 1.29 5.98 1.15Q6.31 1.01 6.66 0.93Q7.07 0.85 7.5 0.85Q7.92 0.85 8.33 0.93Q8.68 1.01 9.01 1.15Q9.34 1.29 9.63 1.48Q9.97 1.7 10.26 1.99Q10.55 2.28 10.77 2.62Q10.96 2.91 11.1 3.23Q11.24 3.57 11.31 3.91Q11.4 4.32 11.4 4.75Q11.4 5.26 11.28 5.74Q11.16 6.18 10.94 6.6Q10.72 7.01 10.42 7.35Q10.2 7.59 9.93 7.8ZM7.5 7.5C5.98 7.5 4.75 6.27 4.75 4.75C4.75 3.24 5.98 2.01 7.5 2.01C9.01 2.01 10.24 3.24 10.24 4.75C10.24 6.27 9.01 7.5 7.5 7.5ZM4.96 5.31Q4.9 5.04 4.9 4.75Q4.9 4.47 4.96 4.19Q5.01 3.96 5.11 3.75Q5.2 3.53 5.32 3.34Q5.47 3.11 5.66 2.92Q5.86 2.73 6.08 2.58Q6.27 2.46 6.49 2.36Q6.71 2.27 6.94 2.22Q7.21 2.16 7.5 2.16Q7.78 2.16 8.05 2.22Q8.28 2.27 8.5 2.36Q8.72 2.46 8.91 2.58Q9.13 2.73 9.33 2.92Q9.52 3.11 9.67 3.34Q9.79 3.53 9.88 3.75Q9.98 3.96 10.03 4.19Q10.09 4.47 10.09 4.75Q10.09 5.04 10.03 5.31Q9.98 5.54 9.88 5.76Q9.79 5.97 9.67 6.17Q9.52 6.39 9.33 6.58Q9.13 6.78 8.91 6.92Q8.72 7.05 8.5 7.14Q8.28 7.23 8.05 7.28Q7.78 7.35 7.5 7.35Q7.21 7.35 6.94 7.28Q6.71 7.23 6.49 7.14Q6.27 7.05 6.08 6.92Q5.86 6.78 5.66 6.58Q5.47 6.39 5.32 6.17Q5.2 5.97 5.11 5.76Q5.01 5.54 4.96 5.31Z" fill="#252525" fill-opacity="1.000000" fill-rule="evenodd"/>
	</g>
</svg>
